<?xml version="1.0" encoding="UTF-8" standalone="no"?>
<svg
   xmlns:dc="http://purl.org/dc/elements/1.1/"
   xmlns:cc="http://creativecommons.org/ns#"
   xmlns:rdf="http://www.w3.org/1999/02/22-rdf-syntax-ns#"
   xmlns:svg="http://www.w3.org/2000/svg"
   xmlns="http://www.w3.org/2000/svg"
   id="svg4927"
   version="1.1"
   viewBox="0 0 40.704578 40.704498"
   height="40.704498mm"
   width="40.704578mm">
  <defs
     id="defs4921">
    <clipPath
       id="clipPath26"
       clipPathUnits="userSpaceOnUse">
      <path
         id="path24"
         d="m 227.758,386.99 h 87.417 v 52.38 h -87.417 z" />
    </clipPath>
  </defs>
  <metadata
     id="metadata4924">
    <rdf:RDF>
      <cc:Work
         rdf:about="">
        <dc:format>image/svg+xml</dc:format>
        <dc:type
           rdf:resource="http://purl.org/dc/dcmitype/StillImage" />
        <dc:title></dc:title>
      </cc:Work>
    </rdf:RDF>
  </metadata>
  <g
     transform="translate(-171.36289,-191.74836)"
     id="layer1">
    <path
       d="m 191.92006,191.74931 a 20.352289,20.352289 0 0 1 20.14693,20.49061 20.352289,20.352289 0 0 1 -20.42562,20.21281 20.352289,20.352289 0 0 1 -20.27848,-20.36044 20.352289,20.352289 0 0 1 20.29504,-20.34393"
       id="path4859"
       style="opacity:1;vector-effect:none;fill:#95c11f;fill-opacity:1;stroke:none;stroke-width:0.19486985;stroke-linecap:butt;stroke-linejoin:miter;stroke-miterlimit:4;stroke-dasharray:none;stroke-dashoffset:0;stroke-opacity:1;paint-order:normal" />
    <g
       transform="matrix(0.39911634,0,0,-0.39911634,84.938874,374.36163)"
       clip-path="url(#clipPath26)"
       id="g22">
      <g
         transform="translate(235.2784,394.3654)"
         id="g28">
        <path
           id="path30"
           style="fill:#ffffff;fill-opacity:1;fill-rule:nonzero;stroke:none"
           d="M 0,0 C 0.148,1.328 -0.211,2.635 -1.707,2.635 -3.119,2.635 -3.856,1.265 -4.046,0 Z m -4.404,-1.96 c -0.274,-1.433 0.379,-3.119 1.981,-3.119 1.117,0 1.833,0.907 2.192,1.897 L 2.592,-3.71 c -0.969,-2.338 -3.372,-3.666 -5.606,-3.666 -3.434,0 -4.826,3.034 -4.446,6.154 0.4,3.14 2.487,6.153 5.943,6.153 2.971,0 5.079,-1.411 4.32,-6.891 z" />
      </g>
      <g
         transform="translate(243.7931,397.8213)"
         id="g32">
        <path
           id="path34"
           style="fill:#ffffff;fill-opacity:1;fill-rule:nonzero;stroke:none"
           d="m 0,0 c 1.074,0.823 2.381,1.475 3.687,1.475 1.286,0 3.014,-0.779 2.656,-3.687 l -1.032,-8.367 h -3.12 l 0.865,7.102 c 0.126,0.949 0.379,2.445 -0.97,2.445 -0.906,0 -1.707,-0.653 -2.382,-1.286 l -1.011,-8.261 h -3.119 l 1.454,11.801 h 3.119 z" />
      </g>
      <g
         transform="translate(258.9651,393.205)"
         id="g36">
        <path
           id="path38"
           style="fill:#ffffff;fill-opacity:1;fill-rule:nonzero;stroke:none"
           d="M 0,0 C 0.19,1.475 0.19,3.857 -1.496,3.857 -3.182,3.857 -3.772,1.475 -3.962,0 -4.13,-1.475 -4.13,-3.857 -2.444,-3.857 -0.759,-3.857 -0.168,-1.475 0,0 m -7.165,0 c 0.4,3.14 2.487,6.153 5.943,6.153 3.456,0 4.826,-3.013 4.426,-6.153 -0.38,-3.119 -2.487,-6.154 -5.922,-6.154 -3.436,0 -4.826,3.035 -4.447,6.154" />
      </g>
      <g
         transform="translate(273.1662,391.0567)"
         id="g40">
        <path
           id="path42"
           style="fill:#ffffff;fill-opacity:1;fill-rule:nonzero;stroke:none"
           d="m 0,0 c -0.801,-2.466 -2.782,-4.067 -5.416,-4.067 -3.436,0 -4.827,3.034 -4.447,6.153 0.401,3.141 2.487,6.154 5.943,6.154 2.634,0 4.237,-1.602 4.447,-4.068 L -2.361,3.688 c -0.105,1.118 -0.252,2.256 -1.833,2.256 -1.686,0 -2.277,-2.383 -2.466,-3.858 -0.168,-1.475 -0.168,-3.857 1.518,-3.857 1.58,0 2.023,1.139 2.381,2.277 z" />
      </g>
      <g
         transform="translate(282.0652,394.3654)"
         id="g44">
        <path
           id="path46"
           style="fill:#ffffff;fill-opacity:1;fill-rule:nonzero;stroke:none"
           d="m 0,0 c 0.147,1.328 -0.21,2.635 -1.707,2.635 -1.412,0 -2.15,-1.37 -2.339,-2.635 z m -4.405,-1.96 c -0.274,-1.433 0.38,-3.119 1.982,-3.119 1.116,0 1.832,0.907 2.191,1.897 L 2.592,-3.71 c -0.969,-2.338 -3.372,-3.666 -5.606,-3.666 -3.435,0 -4.826,3.034 -4.446,6.154 0.4,3.14 2.486,6.153 5.943,6.153 2.971,0 5.079,-1.411 4.321,-6.891 z" />
      </g>
      <g
         transform="translate(293.0134,392.6369)"
         id="g48">
        <path
           id="path50"
           style="fill:#ffffff;fill-opacity:1;fill-rule:nonzero;stroke:none"
           d="m 0,0 c -1.307,-0.231 -3.877,-0.358 -4.088,-2.086 -0.084,-0.696 0.189,-1.265 0.927,-1.265 1.285,0 2.255,0.759 2.95,1.539 z m -0.358,-4.32 c -1.265,-0.822 -2.002,-1.327 -3.498,-1.327 -2.045,0 -3.541,1.39 -3.289,3.498 0.401,3.329 4.869,4.004 7.419,4.278 0.401,1.644 -0.063,2.235 -1.222,2.235 -0.99,0 -1.771,-0.443 -2.066,-1.476 l -2.929,0.464 c 1.012,2.508 2.782,3.307 5.247,3.307 3.183,0 4.447,-1.517 4.195,-3.729 L 2.761,-2.929 C 2.655,-3.773 2.613,-4.615 2.887,-5.395 h -3.035 z" />
      </g>
      <g
         transform="translate(302.5686,397.8213)"
         id="g52">
        <path
           id="path54"
           style="fill:#ffffff;fill-opacity:1;fill-rule:nonzero;stroke:none"
           d="m 0,0 c 1.075,0.823 2.382,1.475 3.688,1.475 1.286,0 3.013,-0.779 2.656,-3.687 l -1.033,-8.367 h -3.12 l 0.865,7.102 c 0.126,0.949 0.38,2.445 -0.97,2.445 -0.906,0 -1.706,-0.653 -2.381,-1.286 l -1.012,-8.261 h -3.119 l 1.455,11.801 h 3.118 z" />
      </g>
      <g
         transform="translate(312.4214,397.2491)"
         id="g56">
        <path
           id="path58"
           style="fill:#ffffff;fill-opacity:1;fill-rule:nonzero;stroke:none"
           d="M 0,0 H 0.447 C 1.009,0 1.128,0.196 1.155,0.452 1.199,0.807 0.987,0.921 0.622,0.921 H 0.114 Z M 0.736,1.22 C 1.494,1.22 1.603,0.796 1.559,0.447 1.521,0.12 1.254,-0.174 0.856,-0.25 L 1.265,-1.538 H 0.895 L 0.502,-0.3 h -0.54 L -0.186,-1.538 H -0.523 L -0.186,1.22 Z M 2.399,-0.109 C 2.524,0.944 1.81,1.76 0.757,1.76 c -1.052,0 -1.974,-0.816 -2.098,-1.869 -0.131,-1.052 0.588,-1.871 1.642,-1.871 1.051,0 1.967,0.819 2.098,1.871 m -4.079,0 c 0.148,1.215 1.255,2.208 2.476,2.208 1.222,0 2.089,-0.993 1.942,-2.208 -0.153,-1.216 -1.26,-2.209 -2.481,-2.209 -1.222,0 -2.089,0.993 -1.937,2.209" />
      </g>
      <g
         transform="translate(295.6863,413.0138)"
         id="g60">
        <path
           id="path62"
           style="fill:#202a60;fill-opacity:1;fill-rule:nonzero;stroke:none"
           d="m 0,0 c 0,-4.486 -12.662,-8.12 -28.278,-8.12 -15.618,0 -28.274,3.634 -28.274,8.12 0,4.489 11.549,26.356 27.165,26.356 C -13.77,26.356 0,4.489 0,0" />
      </g>
      <g
         transform="translate(286.1946,421.8509)"
         id="g64">
        <path
           id="path66"
           style="fill:#ffffff;fill-opacity:1;fill-rule:nonzero;stroke:none"
           d="m 0,0 c -0.001,0.312 -1.054,0.559 -1.575,0.697 -0.51,0.136 -2.335,0.381 -2.442,0.561 -0.089,0.159 -1.313,3.037 -4.159,5.248 -2.674,2.077 -7.101,3.935 -11.529,3.607 -5.736,-0.424 -10.877,-3.553 -14.965,-8.532 -2.488,-3.032 -5.278,-5.305 -3.186,-6.575 1.016,-0.617 6.048,-2.771 8.585,-3.717 2.698,-1.006 7.812,-3.174 13.442,-2.652 4.651,0.432 9.656,3.951 11.735,7.011 0.683,1.134 -2.422,1.857 -3.273,0.434 -1.235,-2.066 -3.934,-4.855 -9.987,-5.1 -8.143,-0.33 -15.16,4.917 -16.288,6.177 -0.861,0.962 4.371,8.09 9.946,9.933 5.759,1.905 11.316,0.999 16.815,-4.688 0.467,-0.483 1.014,-1.425 -0.152,-1.366 -0.997,0.049 -3.926,0.767 -7.698,0.33 -4.941,-0.573 -10.549,-1.859 -8.021,-2.419 0.377,-0.084 6.153,0.581 10.122,0.62 3.968,0.037 8.242,-0.751 8.86,-0.858 0.6,-0.104 3.307,-0.68 3.459,-0.331 C -0.189,-1.341 0.002,-0.519 0,0" />
      </g>
    </g>
  </g>
</svg>
