<svg width="308" height="301" viewBox="0 0 308 301" fill="none" xmlns="http://www.w3.org/2000/svg">
<path d="M91.8989 77.2931C104.812 87.7696 120.16 94.817 136.52 97.7824V10.4874L154.28 0.228882L172.054 10.4874V97.7824C188.411 94.8205 203.755 87.7727 216.661 77.2931L249.012 95.9753C223.791 120.92 189.755 134.909 154.287 134.909C118.82 134.909 84.7827 120.92 59.5619 95.9753L91.8989 77.2931ZM131.115 300.229C140.145 265.929 135.239 229.449 117.468 198.755C99.7614 168.015 70.6173 145.528 36.3965 136.203V173.568C51.9214 179.515 65.696 189.282 76.4461 201.966L0.863281 245.517V266.034L18.6229 276.306L94.2057 232.659C99.8174 248.31 101.39 265.125 98.7777 281.547L131.115 300.229ZM272.178 136.106C237.966 145.477 208.831 167.968 191.095 198.695C173.359 229.422 168.454 265.907 177.445 300.229L209.796 281.547C207.179 265.126 208.751 248.309 214.368 232.659L289.909 276.306L307.683 266.034V245.517L232.1 201.869C242.847 189.182 256.623 179.414 272.15 173.47L272.178 136.106Z" fill="#131926"/>
</svg>
